<?xml version="1.0" standalone="no"?><!DOCTYPE svg PUBLIC "-//W3C//DTD SVG 1.1//EN" "http://www.w3.org/Graphics/SVG/1.1/DTD/svg11.dtd"><svg t="1752373659619" class="icon" viewBox="0 0 1024 1024" version="1.1" xmlns="http://www.w3.org/2000/svg" p-id="4507" xmlns:xlink="http://www.w3.org/1999/xlink" width="200" height="200"><path d="M861.658453 109.93664c-57.586347 23.637333-132.32128 60.945067-195.812693 97.792-78.902613 45.765973-155.026773 97.20832-219.562667 148.421973l-12.745387 10.079573-2.317653-2.781867c-1.273173-1.621333-5.328213-6.95296-8.91904-11.933013-32.791893-45.18912-78.906027-76.47232-123.511467-84.002133-19.234133-3.130027-47.04256-0.34816-67.433813 6.95296-9.731413 3.35872-10.65984 3.474773-102.656 10.427733-50.981547 3.938987-93.965653 7.0656-95.470933 7.0656-5.79584 0-0.580267 1.39264 22.12864 5.90848 57.35424 11.240107 89.4464 19.350187 118.0672 29.77792 17.37728 6.25664 49.588907 19.698347 50.285227 20.97152 1.273173 2.085547-7.069013 66.853547-11.008 85.855573-1.276587 6.024533-2.89792 13.90592-3.70688 17.380693-0.69632 3.474773-1.276587 15.988053-1.39264 27.808427 0 17.841493 0.464213 23.63392 2.665813 34.413227 8.342187 41.59488 28.73344 77.626027 63.494827 112.155307 20.391253 20.2752 40.434347 35.570347 90.258773 68.478293 28.269227 18.766507 46.226773 29.658453 79.827627 48.54784 13.325653 7.41376 27.692373 15.639893 31.863467 18.305707 31.399253 19.698347 56.65792 42.059093 126.52544 112.039253 37.307733 37.53984 50.40128 49.94048 49.933653 47.619413-1.621333-9.618773-12.62592-64.07168-16.56832-81.800533-16.452267-74.499413-35.341653-139.38688-49.937067-171.47904-3.130027-7.0656-6.488747-14.36672-7.304533-16.22016l-1.501867-3.478187 30.818987 0.464213c25.954987 0.34816 76.240213-1.50528 77.74208-2.778453 0.116053-0.232107-1.273173-5.44768-3.355307-11.588267-2.085547-6.140587-3.478187-11.352747-3.24608-11.70432 0.351573-0.228693 8.8064 3.478187 19.002027 8.342187l18.418347 8.686933 33.600853-9.495893c18.42176-5.215573 34.065067-9.73824 34.645333-10.079573 0.464213-0.228693-2.433707-3.9424-6.485333-8.226133-4.05504-4.171093-9.618773-10.195627-12.51328-13.2096-6.027947-6.485333-7.881387-6.95296 20.619947 4.980053l20.046507 8.342187 22.828373-8.342187c12.51328-4.62848 23.28576-8.686933 23.866027-9.03168s-4.287147-5.679787-11.011413-11.936427l-12.049067-11.352747 20.507307 6.836907 20.626773 6.720853 54.111573-19.346773c29.89056-10.65984 57.11872-20.39808 60.596907-21.551787 3.474773-1.047893 6.720853-2.433707 7.30112-2.781867 1.273173-1.273173-56.193707-26.528427-107.29472-47.1552-58.852693-23.753387-144.25088-54.340267-179.24096-64.191147-7.30112-1.969493-13.786453-4.05504-14.25408-4.51584-0.4608-0.580267 12.16512-19.234133 28.153173-41.710933 15.875413-22.480213 28.972373-41.018027 28.972373-41.13408 0-0.232107-3.597653-0.80896-8.116907-1.15712-4.396373-0.464213-8.11008-1.160533-8.11008-1.508693 0-0.344747 17.268053-25.371307 38.352213-55.497387s38.468267-55.15264 38.58432-55.729493c0-0.464213-3.710293-1.276587-8.342187-1.7408-4.631893-0.344747-8.686933-0.925013-8.91904-1.15712-0.467627-0.464213 8.91904-13.55776 60.480853-84.23424 15.527253-21.203627 28.156587-38.813013 27.927893-38.929067C880.892587 102.290773 872.198827 105.649493 861.658453 109.93664L861.658453 109.93664z" fill="#272636" p-id="4508"></path></svg>