<svg xmlns="http://www.w3.org/2000/svg" version="1.1" xmlns:xlink="http://www.w3.org/1999/xlink" viewBox="0 0 200 200"><rect width="200" height="200" fill="url('#gradient')"></rect><defs><linearGradient id="gradient" gradientTransform="rotate(45 0.5 0.5)"><stop offset="0%" stop-color="#fa7439"></stop><stop offset="100%" stop-color="#f9de4c"></stop></linearGradient></defs><g><g fill="#328cab" transform="matrix(16.427807486631018,0,0,16.427807486631018,14.329141531398577,186.74202253474272)" stroke="#d1523f" stroke-width="0.2"><path d="M5.39-2.34L5.39-2.34Q6.08-2.34 6.46-2.72Q6.85-3.10 6.84-3.77L6.84-3.77L9.92-3.77Q9.92-2.03 8.68-0.92Q7.43 0.20 5.47 0.20L5.47 0.20Q3.16 0.20 1.84-1.25Q0.51-2.70 0.51-5.25L0.51-5.25L0.51-5.39Q0.51-6.99 1.10-8.22Q1.69-9.44 2.80-10.10Q3.92-10.76 5.44-10.76L5.44-10.76Q7.50-10.76 8.71-9.62Q9.92-8.48 9.92-6.52L9.92-6.52L6.84-6.52Q6.84-7.34 6.44-7.78Q6.04-8.22 5.36-8.22L5.36-8.22Q4.08-8.22 3.87-6.59L3.87-6.59Q3.80-6.07 3.80-5.17L3.80-5.17Q3.80-3.57 4.18-2.96Q4.56-2.34 5.39-2.34Z"></path></g></g></svg>